<svg width="1160" height="205" viewBox="0 0 1160 205" fill="none" xmlns="http://www.w3.org/2000/svg">
<g opacity="0.1">
<path d="M349.435 0C306.57 0 268.368 35.4111 262.773 80.1357L257.182 124.396C251.592 169.125 281.408 205 324.273 205C367.138 205 405.341 169.125 410.935 124.396L416.526 80.1357C422.117 35.4069 392.3 0 349.435 0ZM377.388 80.1357L371.797 124.864C369.002 146.295 350.367 164.002 329.4 164.002C308.433 164.002 293.525 146.299 296.32 124.864L301.911 80.1357C304.706 58.2372 323.341 40.9975 344.308 40.9975C365.275 40.9975 380.183 58.2372 377.388 80.1357Z" fill="white"/>
<path d="M205.466 1.86621H135.58C114.149 1.86621 96.4416 17.7062 93.6463 39.1408L73.6113 203.143H114.613L122.067 143.038H164C174.25 143.038 184.499 138.38 191.49 129.526L235.286 76.4113C265.571 39.6046 247.399 1.86621 205.466 1.86621ZM200.339 59.6396L169.587 97.8459C167.723 100.177 164.46 101.573 161.665 101.573H127.186L134.176 42.8679H193.813C202.667 42.8679 206.394 51.7217 200.335 59.6396H200.339Z" fill="white"/>
<path d="M-77.7603 62.4302C-81.9553 97.3733 -59.5889 122.999 -24.6458 122.999H-2.2835C8.89764 122.999 16.3517 131.385 14.9562 142.566C13.5564 153.747 4.23883 162.133 -6.94231 162.133H-89.8732L-95 203.135H-11.1332C23.3462 203.135 51.7669 177.509 55.9578 143.03C60.1528 108.087 37.7864 81.9931 2.84325 81.9931H-19.519C-30.7002 81.9931 -38.1543 73.6072 -36.7587 62.4261C-35.359 51.2449 -26.0414 42.8591 -14.8602 42.8591H68.0707L73.1974 1.85742H-9.73759C-44.6807 1.85742 -73.5695 27.4829 -77.7603 62.4261V62.4302Z" fill="white"/>
<path d="M1182.03 81.9972C1184.82 60.0987 1203.46 42.8591 1224.42 42.8591H1283.67L1288.79 1.85742H1229.55C1186.68 1.85742 1148.48 37.2685 1142.89 81.9931L1137.76 122.527C1132.17 167.255 1161.52 202.662 1204.39 203.13H1263.94L1269.07 162.129H1209.52C1188.55 161.665 1174.1 144.425 1176.9 122.991L1182.03 81.9889V81.9972Z" fill="#C2C7EF"/>
<path d="M917.128 1.86621H847.242C825.812 1.86621 808.104 17.7062 805.309 39.1408L785.274 203.143H826.276L833.73 143.038H862.701L894.298 203.143H941.822L903.011 129.7C903.057 129.642 903.102 129.588 903.148 129.53L946.945 76.4154C975.366 41.9361 959.058 1.87035 917.124 1.87035L917.128 1.86621ZM910.867 59.6396L880.115 97.8459C878.251 100.177 874.988 101.573 872.193 101.573H837.713L844.704 42.8679H904.341C913.194 42.8679 916.921 51.7217 910.863 59.6396H910.867Z" fill="#C2C7EF"/>
<path d="M558.165 1.86621H488.279C466.848 1.86621 449.141 17.7062 446.345 39.1408L426.311 203.143H467.312L474.766 143.038H503.394L535.335 203.143H582.859L543.866 129.352L587.518 76.4154C615.938 41.9361 600.099 1.87035 558.165 1.87035V1.86621ZM553.038 59.6396L522.286 97.8459C520.423 100.177 517.159 101.573 514.364 101.573H479.885L486.875 42.8679H546.512C555.366 42.8679 559.093 51.7217 553.034 59.6396H553.038Z" fill="white"/>
<path d="M985.876 39.1362L970.5 165.864C967.705 187.295 981.681 203.139 1003.12 203.139H1102.35L1107.48 162.137H1012.43L1017.09 122.999H1096.76L1101.89 81.9972H1022.22L1026.88 42.8591H1121.93L1127.05 1.85742H1027.81C1006.38 1.85742 988.676 17.6974 985.88 39.132L985.876 39.1362Z" fill="#C2C7EF"/>
<path d="M625.257 42.8679H682.099L662.532 203.143H703.534L723.101 42.8679H779.942L785.065 1.86621H630.384L625.257 42.8679Z" fill="white"/>
</g>
</svg>
